<?xml version="1.0" encoding="UTF-8" standalone="no"?>
<!-- Created with Inkscape (http://www.inkscape.org/) -->

<svg
   width="100mm"
   height="100mm"
   viewBox="0 0 99.999998 99.999997"
   version="1.1"
   id="svg1"
   xml:space="preserve"
   inkscape:version="1.4.2 (ebf0e940d0, 2025-05-08)"
   sodipodi:docname="icon_sourceradiant.svg"
   xmlns:inkscape="http://www.inkscape.org/namespaces/inkscape"
   xmlns:sodipodi="http://sodipodi.sourceforge.net/DTD/sodipodi-0.dtd"
   xmlns="http://www.w3.org/2000/svg"
   xmlns:svg="http://www.w3.org/2000/svg"><sodipodi:namedview
     id="namedview1"
     pagecolor="#505050"
     bordercolor="#ffffff"
     borderopacity="1"
     inkscape:showpageshadow="0"
     inkscape:pageopacity="0"
     inkscape:pagecheckerboard="1"
     inkscape:deskcolor="#505050"
     inkscape:document-units="mm"
     inkscape:zoom="2.2097881"
     inkscape:cx="207.2597"
     inkscape:cy="173.54606"
     inkscape:window-width="1600"
     inkscape:window-height="1128"
     inkscape:window-x="0"
     inkscape:window-y="0"
     inkscape:window-maximized="1"
     inkscape:current-layer="layer1" /><defs
     id="defs1"><rect
       id="SVGID_1_"
       x="-40"
       y="-39"
       opacity="0.5"
       width="1280"
       height="1024" /></defs><g
     inkscape:label="Layer 1"
     inkscape:groupmode="layer"
     id="layer1"
     transform="translate(-51.459736,-79.38398)"><g
       id="g1"
       transform="matrix(0.2645845,0,0,0.26458333,-20.222973,91.857082)"
       inkscape:label="source-corner"><path
         id="corner"
         d="m 598.17679,-4.4178771 c -8.35661,-3.4270512 -16.07906,-3.8282231 -25.46564,-3.7098654 l -159.07901,0.8726838 c -32.82751,-1.668941 -65.18739,6.37061232 -93.15799,22.4727757 l 0.0289,0.03312 c -5.00282,2.726814 -8.40726,8.042761 -8.40726,14.13903 0,8.885327 7.21061,16.09068 16.09019,16.09068 4.63485,0 8.79555,-1.97027 11.73426,-5.102544 34.97542,-18.745595 77.72344,-22.35037 117.20519,-6.136205 70.12803,28.786615 103.76161,109.270132 74.96835,179.392852 -7.72256,18.8054 -19.19025,34.95746 -33.15505,48.02143 l 0.12263,0.17279 c -4.77906,2.788 -8.00602,7.96274 -8.00602,13.89952 0,8.88496 7.2154,16.08477 16.10174,16.08477 5.71343,0 10.73158,-2.99863 13.58648,-7.51148 17.01463,-15.99632 30.96346,-35.77027 40.39995,-58.74954 0.65044,-1.56917 65.82732,-160.325587 65.99398,-160.749396 11.12763,-27.095052 -1.86434,-58.0979617 -28.96078,-69.2206171 z"
         style="fill:#ff8000;fill-opacity:1;stroke-width:1.49915"
         inkscape:label="source-corner" /></g><g
       id="g13"
       transform="matrix(0.18118043,0,0,0.18118043,48.137001,96.848416)"
       inkscape:label="radiant-sun"><path
         fill-rule="evenodd"
         clip-rule="evenodd"
         fill="#ff8000"
         d="m 200.571,387.556 c -3.862,0 -7.759,-3.021 -7.759,-9.771 V 270.259 c -3.264,-1.396 -6.387,-3.081 -9.347,-5.045 l -17.271,51.812 c -2.272,6.819 -9.684,12.162 -16.873,12.162 H 91.385 c -6.461,0 -8.605,-3.493 -9.228,-4.995 -0.623,-1.502 -1.576,-5.489 2.993,-10.058 l 76.107,-76.106 c -1.321,-3.281 -2.338,-6.668 -3.045,-10.139 l -48.92,24.461 c -2.255,1.127 -4.896,1.723 -7.641,1.723 -4.906,0 -9.725,-1.89 -12.89,-5.054 L 47.794,208.053 c -4.568,-4.568 -3.615,-8.555 -2.993,-10.057 0.622,-1.502 2.766,-4.996 9.227,-4.996 h 107.636 c 1.379,-3.259 3.045,-6.375 4.986,-9.331 l -51.863,-17.287 c -6.82,-2.274 -12.162,-9.686 -12.162,-16.874 V 91.573 c 0,-6.75 3.896,-9.771 7.758,-9.771 2.493,0 4.947,1.19 7.294,3.537 l 76.023,76.023 c 3.282,-1.34 6.674,-2.375 10.153,-3.099 L 179.461,109.48 c -3.214,-6.431 -1.75,-15.449 3.332,-20.531 L 223.76,47.982 c 2.347,-2.347 4.8,-3.537 7.293,-3.537 3.862,0 7.759,3.021 7.759,9.771 v 107.372 c 3.346,1.402 6.543,3.105 9.568,5.097 l 17.237,-51.71 c 2.273,-6.82 9.685,-12.162 16.873,-12.162 h 57.937 c 6.46,0 8.605,3.493 9.227,4.995 0.622,1.501 1.576,5.488 -2.992,10.057 l -75.972,75.973 c 1.335,3.295 2.364,6.698 3.08,10.188 l 48.75,-24.375 c 2.254,-1.127 4.896,-1.723 7.642,-1.723 4.906,0 9.725,1.889 12.89,5.055 l 40.967,40.967 c 4.568,4.568 3.614,8.555 2.992,10.057 -0.622,1.502 -2.766,4.993 -9.227,4.993 H 270.336 c -1.395,3.296 -3.084,6.447 -5.055,9.433 l 51.557,17.186 c 6.82,2.272 12.162,9.685 12.162,16.873 v 57.937 c 0,6.75 -3.896,9.771 -7.759,9.771 -2.493,0 -4.947,-1.19 -7.293,-3.537 l -75.92,-75.92 c -3.308,1.332 -6.723,2.354 -10.223,3.063 l 24.358,48.716 c 3.214,6.431 1.75,15.449 -3.332,20.531 l -40.967,40.967 c -2.346,2.345 -4.8,3.536 -7.293,3.536 z"
         id="path4"
         inkscape:label="radiant-sun" /></g></g></svg>
